<svg viewBox="0 0 24 26" fill="none" xmlns="http://www.w3.org/2000/svg">
<path d="M3 4H6.38321L7.58853 15.9769C7.63862 16.3071 7.80643 16.608 8.06102 16.8243C8.31561 17.0406 8.63984 17.1576 8.97395 17.1538H17.7021C18.0042 17.1696 18.3032 17.0861 18.5534 16.9161C18.8035 16.7461 18.9912 16.4989 19.0875 16.2123L20.9302 10.6738C20.999 10.4656 21.0173 10.2441 20.9836 10.0274C20.9498 9.81072 20.865 9.60517 20.7362 9.42769C20.6021 9.23894 20.4227 9.08681 20.2146 8.98522C20.0065 8.88362 19.7761 8.83581 19.5447 8.84615H6.8681M11.5619 11.6154V14.3846M15.7182 11.6154V14.3846M17.4666 22C17.2829 22 17.1067 21.9271 16.9768 21.7972C16.8469 21.6674 16.7739 21.4913 16.7739 21.3077C16.7739 21.1241 16.8469 20.948 16.9768 20.8182C17.1067 20.6883 17.2829 20.6154 17.4666 20.6154C17.6503 20.6154 17.8265 20.6883 17.9564 20.8182C18.0863 20.948 18.1593 21.1241 18.1593 21.3077C18.1593 21.4913 18.0863 21.6674 17.9564 21.7972C17.8265 21.9271 17.6503 22 17.4666 22ZM8.46134 22C8.27762 22 8.10143 21.9271 7.97152 21.7972C7.84161 21.6674 7.76863 21.4913 7.76863 21.3077C7.76863 21.1241 7.84161 20.948 7.97152 20.8182C8.10143 20.6883 8.27762 20.6154 8.46134 20.6154C8.64506 20.6154 8.82126 20.6883 8.95116 20.8182C9.08107 20.948 9.15406 21.1241 9.15406 21.3077C9.15406 21.4913 9.08107 21.6674 8.95116 21.7972C8.82126 21.9271 8.64506 22 8.46134 22Z" stroke="#5C5F6A" stroke-width="1.42857" stroke-linecap="round" stroke-linejoin="round"/>
</svg>
