<svg width="17" height="16" viewBox="0 0 17 16" fill="none" xmlns="http://www.w3.org/2000/svg">
<path fill-rule="evenodd" clip-rule="evenodd" d="M3.94815 7.99999C3.94815 7.48037 4.0344 6.98212 4.18853 6.51487L1.49228 4.45599C0.966776 5.52287 0.670776 6.72512 0.670776 7.99999C0.670776 9.27387 0.966526 10.4752 1.49115 11.5415L4.1859 9.47862C4.03328 9.01349 3.94815 8.51712 3.94815 7.99999Z" fill="#FBBC05"/>
<path fill-rule="evenodd" clip-rule="evenodd" d="M8.68218 3.27275C9.81106 3.27275 10.8307 3.67275 11.6318 4.32725L13.9623 2C12.5422 0.763625 10.7214 0 8.68218 0C5.51618 0 2.79518 1.8105 1.49231 4.456L4.18843 6.51487C4.80968 4.62912 6.58056 3.27275 8.68218 3.27275Z" fill="#EA4335"/>
<path fill-rule="evenodd" clip-rule="evenodd" d="M8.68219 12.7272C6.58069 12.7272 4.80981 11.3709 4.18856 9.48512L1.49231 11.5436C2.79518 14.1895 5.51619 16 8.68219 16C10.6362 16 12.5018 15.3061 13.9019 14.0061L11.3427 12.0276C10.6206 12.4825 9.71119 12.7272 8.68219 12.7272Z" fill="#34A853"/>
<path fill-rule="evenodd" clip-rule="evenodd" d="M16.3293 8C16.3293 7.52725 16.2564 7.01813 16.1471 6.5455H8.68213V9.63638H12.9791C12.7643 10.6903 12.1795 11.5004 11.3426 12.0276L13.9019 14.0061C15.3726 12.6411 16.3293 10.6076 16.3293 8Z" fill="#4285F4"/>
</svg>
