<svg width="24" height="26" viewBox="0 0 24 26" fill="none" xmlns="http://www.w3.org/2000/svg">
<path fill-rule="evenodd" clip-rule="evenodd" d="M5.63604 6.63604C7.32387 4.94821 9.61305 4 12 4C14.3869 4 16.6761 4.94821 18.364 6.63604C20.0518 8.32387 21 10.6131 21 13C21 15.3869 20.0518 17.6761 18.364 19.364C16.6761 21.0518 14.3869 22 12 22C9.61305 22 7.32387 21.0518 5.63604 19.364C3.94821 17.6761 3 15.3869 3 13C3 10.6131 3.94821 8.32387 5.63604 6.63604ZM12 5.5602C10.0268 5.5602 8.1345 6.34403 6.73927 7.73927C5.34403 9.1345 4.5602 11.0268 4.5602 13C4.5602 14.9732 5.34403 16.8655 6.73927 18.2607C8.1345 19.656 10.0268 20.4398 12 20.4398C13.9732 20.4398 15.8655 19.656 17.2607 18.2607C18.656 16.8655 19.4398 14.9732 19.4398 13C19.4398 11.0268 18.656 9.1345 17.2607 7.73927C15.8655 6.34403 13.9732 5.5602 12 5.5602Z" fill="#5C5F6A"/>
<path fill-rule="evenodd" clip-rule="evenodd" d="M12.7801 11.5876V17.5739H11.2199V11.5876H12.7801Z" fill="#5C5F6A"/>
<path fill-rule="evenodd" clip-rule="evenodd" d="M12.7134 9.2062C12.7563 9.10956 12.7801 9.00259 12.7801 8.89005C12.7801 8.45921 12.4308 8.10995 12 8.10995C11.7093 8.10995 11.4304 8.22545 11.2248 8.43103C11.0192 8.63662 10.9037 8.91546 10.9037 9.2062C10.9037 9.49694 11.0192 9.77578 11.2248 9.98137C11.4304 10.187 11.7093 10.3025 12 10.3025C12.4308 10.3025 12.7801 9.95319 12.7801 9.52235C12.7801 9.40981 12.7563 9.30284 12.7134 9.2062Z" fill="#5C5F6A"/>
<path fill-rule="evenodd" clip-rule="evenodd" d="M11.2199 8.89005C11.2199 8.45921 11.5692 8.10995 12 8.10995C12.2907 8.10995 12.5696 8.22545 12.7752 8.43103C12.9808 8.63662 13.0962 8.91546 13.0962 9.2062C13.0962 9.49694 12.9808 9.77578 12.7752 9.98137C12.5696 10.187 12.2907 10.3025 12 10.3025C11.5692 10.3025 11.2199 9.95319 11.2199 9.52235C11.2199 9.40981 11.2437 9.30284 11.2866 9.2062C11.2437 9.10956 11.2199 9.00259 11.2199 8.89005Z" fill="#5C5F6A"/>
</svg>
