<svg width="24" height="26" viewBox="0 0 24 26" fill="none" xmlns="http://www.w3.org/2000/svg">
<path d="M12.0391 11.5C14.1988 11.5 15.9497 9.82107 15.9497 7.75C15.9497 5.67894 14.1988 4 12.0391 4C9.87932 4 8.12848 5.67894 8.12848 7.75C8.12848 9.82107 9.87932 11.5 12.0391 11.5Z" stroke="#5C5F6A" stroke-width="1.42857" stroke-linecap="round" stroke-linejoin="round"/>
<path d="M5 22V21.1869C5.01245 20.0436 5.32689 18.9219 5.91394 17.9267C6.501 16.9315 7.34151 16.0953 8.35697 15.496C9.37244 14.8968 10.5297 14.5541 11.7207 14.5C11.8269 14.4952 11.9331 14.4927 12.0391 14.4925C12.1451 14.4927 12.2513 14.4952 12.3574 14.5C13.5484 14.5541 14.7057 14.8968 15.7212 15.496C16.3051 15.8406 16.8312 16.2636 17.2845 16.75" stroke="#5C5F6A" stroke-width="1.42857" stroke-linecap="round" stroke-linejoin="round"/>
</svg>
