<svg width="24" height="26" viewBox="0 0 24 26" fill="none" xmlns="http://www.w3.org/2000/svg">
<path d="M13.0959 6.19349C12.9926 6.0062 12.8356 5.84902 12.6422 5.73927C12.4489 5.62952 12.2266 5.57144 12 5.57144C11.7734 5.57144 11.5511 5.62952 11.3578 5.73927C11.1644 5.84902 11.0074 6.0062 10.9041 6.19349L4.13172 18.7707C4.03727 18.9447 3.99229 19.1383 4.00108 19.3331C4.00986 19.5278 4.07211 19.7172 4.18192 19.8833C4.29172 20.0494 4.44543 20.1868 4.62845 20.2821C4.81147 20.3776 5.01772 20.428 5.22762 20.4286H18.7724C18.9823 20.428 19.1886 20.3776 19.3715 20.2821C19.5546 20.1868 19.7083 20.0494 19.8181 19.8833C19.9279 19.7172 19.9902 19.5278 19.9989 19.3331C20.0078 19.1383 19.9627 18.9447 19.8683 18.7707L13.0959 6.19349Z" stroke="#5C5F6A" stroke-width="1.43" stroke-linecap="round" stroke-linejoin="round"/>
<path d="M12 10.9592V14.3878" stroke="#5C5F6A" stroke-width="1.43" stroke-linecap="round" stroke-linejoin="round"/>
<path d="M12.0001 17.6531C11.8198 17.6531 11.6736 17.5069 11.6736 17.3265C11.6736 17.1462 11.8198 17 12.0001 17" stroke="#5C5F6A" stroke-width="1.43" stroke-linecap="round" stroke-linejoin="round"/>
<path d="M12.0001 17.6531C12.1805 17.6531 12.3267 17.5069 12.3267 17.3265C12.3267 17.1462 12.1805 17 12.0001 17" stroke="#5C5F6A" stroke-width="1.43" stroke-linecap="round" stroke-linejoin="round"/>
</svg>
